<svg xmlns="http://www.w3.org/2000/svg" width="223.659" height="79.426" viewBox="0 0 223.659 79.426">
  <g id="Group_163" data-name="Group 163" transform="translate(-299 -141)">
    <g id="b4fc498c-73e4-48ed-a9e2-e039f294fac4" transform="translate(299 141)">
      <path id="Path_15" data-name="Path 15" d="M13.031,17.81h7.426v41.1h0q0,16.6-19.413,16.6h0V69.485h0q11.987,0,11.987-10.571h0ZM31.625,62.752h0q0-13.052,17.016-13.052h0a73.8,73.8,0,0,1,10.993.827h0V46.511h0q0-7.323-11.344-7.323h0A46.629,46.629,0,0,0,35.017,41.2h0V35.172h0A46.629,46.629,0,0,1,48.29,33.164h0Q67,33.164,67,46.275h0V75.508H62.85l-2.573-4.193h0a24.075,24.075,0,0,1-13.683,4.193h0Q31.625,75.508,31.625,62.752Zm17.016-7.028h0q-9.59,0-9.59,6.91h0q0,6.851,7.543,6.851h0a20.611,20.611,0,0,0,13.039-4.134h0v-8.8h0A73.8,73.8,0,0,0,48.641,55.724Zm31.166-22.56h7.368V75.508H79.807Zm0-15.355h7.368v7.028H79.807Zm20.583,0h7.368v57.7H100.39Zm48.533,15.355h7.426V75.508h-5.087l-1.286-5.374h0q-7.6,5.374-15.32,5.374h0q-14.5,0-14.5-15.768h0V33.164h7.426V59.858h0q0,9.449,9.239,9.449h0q6.374,0,12.1-5.374h0ZM168.745,17.81h7.368v57.7h-7.368Zm48.533,15.355H224.7V75.508h-5.087l-1.286-5.374h0q-7.6,5.374-15.32,5.374h0q-14.5,0-14.5-15.768h0V33.164h7.426V59.858h0q0,9.449,9.239,9.449h0q6.374,0,12.1-5.374h0Z" transform="translate(-1.044 -17.81)" fill="#f78748"/>
    </g>
    <g id="ce85103e-d036-4064-8f5d-d47686bd3585" transform="translate(324.025 208.952)" opacity="0.46" style="isolation: isolate">
      <path id="Path_17" data-name="Path 17" d="M1.634,6.875.35,6.66.41,6.416H2.5l4.772,7.109V6.845L6.012,6.679l.04-.264H8.985l-.061.264-1.143.156v7.93l-.374.078L2.139,7.158v7.129l1.274.127-.071.313H.431l.04-.283,1.163-.205Zm15.9,3.311h0a6.185,6.185,0,0,0,.364,2.207h0a3.45,3.45,0,0,0,1.092,1.523h0a2.748,2.748,0,0,0,1.719.557h0a2.737,2.737,0,0,0,1.082-.215h0a2.533,2.533,0,0,0,.839-.576h0a3.509,3.509,0,0,0,.6-.82h0a4.323,4.323,0,0,0,.364-.967h0a4.2,4.2,0,0,0,.121-1h0a5.177,5.177,0,0,0-.859-3.115h0a2.737,2.737,0,0,0-2.326-1.191h0a2.828,2.828,0,0,0-1.092.205h0a2.487,2.487,0,0,0-.839.557h0a3.4,3.4,0,0,0-.586.82h0a3.776,3.776,0,0,0-.354.977h0A4.439,4.439,0,0,0,17.539,10.185Zm-.758.4h0a4.494,4.494,0,0,1,1.112-3.164h0a3.824,3.824,0,0,1,2.963-1.2h0a3.427,3.427,0,0,1,1.982.566h0A3.5,3.5,0,0,1,24.06,8.32h0a5.7,5.7,0,0,1,.4,2.217h0a4.858,4.858,0,0,1-.162,1.24h0a4.617,4.617,0,0,1-.475,1.172h0a4.275,4.275,0,0,1-.8,1.006h0a3.57,3.57,0,0,1-1.143.693h0a4.318,4.318,0,0,1-1.507.254h0a3.2,3.2,0,0,1-1.891-.586h0a3.765,3.765,0,0,1-1.274-1.572h0A5.248,5.248,0,0,1,16.78,10.586ZM32.331,8.564,32.26,6.416H39.4l-.233,2.217-.354-.039L38.7,6.757H36.133v7.481l1.223.176-.071.313H34.151l.03-.283,1.213-.205V6.757H32.938l-.243,1.865Zm25,8.33-.152-.293h0a4.947,4.947,0,0,0,1.325-1.582h0a5,5,0,0,0,.4-2.178h0v-6l-1.244-.166.04-.264h3.165l-.04.264-1.153.156-.03,5.488h0a9.23,9.23,0,0,1-.121,1.641h0a3.681,3.681,0,0,1-.4,1.182h0a3.716,3.716,0,0,1-.7.908h0a9.875,9.875,0,0,1-1.092.84ZM69.873,6.845l-1.254-.166.03-.264h3.134l-.03.264-1.163.156v4.58h0a5.056,5.056,0,0,0,.182,1.445h0a2.145,2.145,0,0,0,.536.938h0a2.227,2.227,0,0,0,.809.488h0a3.143,3.143,0,0,0,1.041.156h0A2.394,2.394,0,0,0,75,13.75h0a2.881,2.881,0,0,0,.647-2.021h0V6.845l-1.284-.166.03-.264h2.942l-.051.264-1.153.156-.02,4.619h0a3.9,3.9,0,0,1-.758,2.568h0a2.991,2.991,0,0,1-2.417.879h0a4.746,4.746,0,0,1-.94-.088h0a2.767,2.767,0,0,1-.829-.322h0a2.3,2.3,0,0,1-.677-.586h0a2.812,2.812,0,0,1-.455-.938h0a4.928,4.928,0,0,1-.162-1.328h0Zm15.237,7.1h0l.212-1.895.324.049.2,1.465h0a1.537,1.537,0,0,0,.758.664h0a2.724,2.724,0,0,0,1.143.244h0a1.786,1.786,0,0,0,1.173-.391h0a1.353,1.353,0,0,0,.485-1.1h0a1.481,1.481,0,0,0-.212-.762h0a2.446,2.446,0,0,0-.566-.635h0a9.277,9.277,0,0,0-.779-.537h0q-.425-.264-.849-.547h0a7.716,7.716,0,0,1-.768-.576h0a2.581,2.581,0,0,1-.566-.713h0a1.9,1.9,0,0,1-.212-.889h0a1.868,1.868,0,0,1,.7-1.514h0a2.45,2.45,0,0,1,1.587-.566h0a3.526,3.526,0,0,1,1.143.186h0a2.081,2.081,0,0,1,.88.547h0l-.222,2.07-.324-.049-.182-1.621h0a1.454,1.454,0,0,0-.617-.537h0a1.826,1.826,0,0,0-.849-.215h0a1.475,1.475,0,0,0-1.021.371h0a1.313,1.313,0,0,0-.415,1.016h0a1.582,1.582,0,0,0,.222.811h0a2.388,2.388,0,0,0,.576.664h0q.354.283.789.566h0q.425.273.859.547h0a7.48,7.48,0,0,1,.789.566h0a2.466,2.466,0,0,1,.576.684h0a1.634,1.634,0,0,1,.222.82h0a2,2,0,0,1-.758,1.6h0a3.064,3.064,0,0,1-2.012.625h0a3.359,3.359,0,0,1-1.335-.264h0A2.473,2.473,0,0,1,85.11,13.945ZM98.032,8.564l-.061-2.148h7.138l-.243,2.217-.344-.039L104.4,6.757h-2.568v7.481l1.223.176-.071.313H99.852l.04-.283,1.2-.205V6.757H98.639L98.4,8.623Zm24.9,5.381h0l.2-1.895.334.049.192,1.465h0a1.593,1.593,0,0,0,.768.664h0a2.723,2.723,0,0,0,1.143.244h0a1.812,1.812,0,0,0,1.173-.391h0a1.353,1.353,0,0,0,.485-1.1h0a1.43,1.43,0,0,0-.222-.762h0a2.224,2.224,0,0,0-.566-.635h0a8.085,8.085,0,0,0-.768-.537h0q-.425-.264-.849-.547h0a6.416,6.416,0,0,1-.768-.576h0a2.355,2.355,0,0,1-.566-.713h0a1.835,1.835,0,0,1-.222-.889h0a1.857,1.857,0,0,1,.708-1.514h0a2.45,2.45,0,0,1,1.587-.566h0a3.526,3.526,0,0,1,1.143.186h0a2.081,2.081,0,0,1,.88.547h0l-.233,2.07-.313-.049-.192-1.621h0a1.384,1.384,0,0,0-.607-.537h0a1.886,1.886,0,0,0-.859-.215h0a1.462,1.462,0,0,0-1.011.371h0a1.3,1.3,0,0,0-.425,1.016h0a1.581,1.581,0,0,0,.222.811h0a2.542,2.542,0,0,0,.586.664h0q.354.283.779.566h0q.435.273.859.547h0a7.48,7.48,0,0,1,.789.566h0a2.393,2.393,0,0,1,.586.684h0a1.634,1.634,0,0,1,.222.82h0a2,2,0,0,1-.758,1.6h0a3.08,3.08,0,0,1-2.022.625h0a3.287,3.287,0,0,1-1.325-.264h0A2.473,2.473,0,0,1,122.936,13.945Zm12.922-5.381-.071-2.148h7.138l-.243,2.217-.344-.039-.111-1.836h-2.568v7.481l1.223.176-.081.313h-3.124l.03-.283,1.213-.205V6.757h-2.467l-.233,1.865ZM154.826,7.48l-1.375,3.682h2.71ZM153.5,14.726h-2.76l.03-.283.981-.205,3.033-7.891.364-.088,2.872,8.027.91.127-.061.3h-2.821l.061-.283,1.143-.2-.961-2.705h-2.983l-1.021,2.754,1.274.127Zm14.155-7.861-.971-.2.03-.244H169.6l-.02.244-1.153.166,2.164,4.072,2.144-4.053-1.284-.2.02-.244h2.69l-.02.244-.89.176-2.406,4.619v2.822l1.244.137-.051.313h-3.185l.051-.283,1.2-.205V11.455Z" transform="translate(-0.35 -6.22)" fill="#707070" stroke="#707070" stroke-width="1.093"/>
    </g>
  </g>
</svg>
